0
SECTION
2
HEADER
9
$INSUNITS
70
4
9
$ACADVER
1
AC1014
9
$HANDSEED
5
FFFF
0
ENDSEC
0
SECTION
2
TABLES
0
TABLE
2
VPORT
5
8
100
AcDbSymbolTable
0
ENDTAB
0
TABLE
2
LTYPE
5
5
100
AcDbSymbolTable
0
LTYPE
5
14
100
AcDbSymbolTableRecord
100
AcDbLinetypeTableRecord
2
BYBLOCK
70
0
0
LTYPE
5
15
100
AcDbSymbolTableRecord
100
AcDbLinetypeTableRecord
2
BYLAYER
70
0
0
ENDTAB
0
TABLE
2
LAYER
5
2
100
AcDbSymbolTable
70
2
0
LAYER
5
50
100
AcDbSymbolTableRecord
100
AcDbLayerTableRecord
2
0
70
0
6
CONTINUOUS
0
ENDTAB
0
TABLE
2
STYLE
5
3
100
AcDbSymbolTable
70
1
0
STYLE
5
11
100
AcDbSymbolTableRecord
100
AcDbTextStyleTableRecord
2
STANDARD
70
0
0
ENDTAB
0
TABLE
2
VIEW
5
6
100
AcDbSymbolTable
70
0
0
ENDTAB
0
TABLE
2
UCS
5
7
100
AcDbSymbolTable
70
0
0
ENDTAB
0
TABLE
2
APPID
5
9
100
AcDbSymbolTable
70
2
0
APPID
5
12
100
AcDbSymbolTableRecord
100
AcDbRegAppTableRecord
2
ACAD
70
0
0
ENDTAB
0
TABLE
2
DIMSTYLE
5
A
100
AcDbSymbolTable
70
1
0
ENDTAB
0
TABLE
2
BLOCK_RECORD
5
1
100
AcDbSymbolTable
70
1
0
BLOCK_RECORD
5
1F
100
AcDbSymbolTableRecord
100
AcDbBlockTableRecord
2
*MODEL_SPACE
0
BLOCK_RECORD
5
1B
100
AcDbSymbolTableRecord
100
AcDbBlockTableRecord
2
*PAPER_SPACE
0
ENDTAB
0
ENDSEC
0
SECTION
2
BLOCKS
0
BLOCK
5
20
100
AcDbEntity
100
AcDbBlockBegin
2
*MODEL_SPACE
0
ENDBLK
5
21
100
AcDbEntity
100
AcDbBlockEnd
0
BLOCK
5
1C
100
AcDbEntity
100
AcDbBlockBegin
2
*PAPER_SPACE
0
ENDBLK
5
1D
100
AcDbEntity
100
AcDbBlockEnd
0
ENDSEC
0
SECTION
2
ENTITIES
0
LWPOLYLINE
5
100
100
AcDbEntity
8
0
100
AcDbPolyline
90
24
70
1
43
0.0
10
-31.075729207544217
20
-5.3731137287292317
42
0.50423455051924448
10
-32.031853759315453
20
-6.6660742064395482
10
-26.439984546230097
20
-24.916056206439542
42
0.32957988453969583
10
-25.483859994458847
20
-25.623095728729229
10
0.7970215202636588
20
-25.623095728729233
42
0.28108463119338833
10
1.6864333320447717
20
-25.080202531417886
42
-0.077821197938980055
10
1.8687383930479029
20
-24.830202522511424
10
1.9900587418248292
20
-24.708882184169067
42
-0.19891236737965615
10
3.4042723293892081
20
-24.123095807359306
10
139.26863507989682
20
-24.123101650099187
42
-0.19891236737966908
10
140.68284861707863
20
-24.708888148543235
10
140.80416895542098
20
-24.830208497320161
42
-0.077820340106259045
10
140.98647243587402
20
-25.080205488413689
42
0.28108373435749551
10
141.8758827279222
20
-25.623095728729247
10
168.38368245085809
20
-25.623095728729254
42
0.32958276662241903
10
169.33981004900798
20
-24.916046263898778
10
174.93147166831454
20
-6.6660642638987984
42
0.50423128985090404
10
173.97534407016468
20
-5.3731137287292539
10
124.82376918036054
20
-5.3731137287292512
42
0.20603212041025271
10
119.01429416104943
20
-7.8731137287292512
42
-0.20603212041025343
10
113.20481914173828
20
-10.373113728729255
10
31.986386124068531
20
-10.373113728729233
42
-0.20603212041025307
10
26.176911104757412
20
-7.8731137287292343
42
0.20603212041025334
10
20.367436085446286
20
-5.3731137287292334
0
CIRCLE
5
101
100
AcDbEntity
8
0
100
AcDbCircle
10
-21.900619359863288
20
-20.123102728729233
30
0
40
1.1499999999999977
210
0
220
0
230
1
0
CIRCLE
5
102
100
AcDbEntity
8
0
100
AcDbCircle
10
-21.900619359863288
20
-10.62312572872923
30
0
40
1.1499999999999977
210
0
220
0
230
1
0
CIRCLE
5
103
100
AcDbEntity
8
0
100
AcDbCircle
10
164.80438101513673
20
-20.123102728729254
30
0
40
1.1499999999999844
210
0
220
0
230
1
0
CIRCLE
5
104
100
AcDbEntity
8
0
100
AcDbCircle
10
164.80438101513673
20
-10.623125728729255
30
0
40
1.1499999999999844
210
0
220
0
230
1
0
LWPOLYLINE
5
105
100
AcDbEntity
8
0
100
AcDbPolyline
90
122
70
1
43
0.0
10
-10.597802895569881
20
-18.115422851532344
10
-9.6204139324665068
20
-15.755797161094321
42
-0.53451113595079658
10
-7.9894276187686426
20
-15.431373812272858
10
-6.256476723944342
20
-17.16432470709718
10
-5.6730455114138678
20
-15.755797161094323
42
-0.53451113595079636
10
-4.0420591977160063
20
-15.431373812272859
10
-2.3091083028917048
20
-17.16432470709718
10
-1.7256770903612306
20
-15.755797161094323
42
-0.53451113595079636
10
-0.094690776663369225
20
-15.431373812272859
10
1.6382601181609324
20
-17.164324707097173
10
2.2216913306914061
20
-15.755797161094325
42
-0.53451113595078981
10
3.8526776443892348
20
-15.431373812272868
10
5.5856285392135518
20
-17.164324707097176
10
6.1690597517440269
20
-15.755797161094325
42
-0.53451113595079081
10
7.8000460654418537
20
-15.431373812272868
10
9.5329969602661713
20
-17.164324707097183
10
10.116428172796663
20
-15.755797161094325
42
-0.53451113595079403
10
11.747414486494492
20
-15.43137381227287
10
13.480365381318808
20
-17.164324707097183
10
14.063796593849284
20
-15.755797161094327
42
-0.53451113595079713
10
15.694782907547143
20
-15.431373812272863
10
17.427733802371446
20
-17.164324707097183
10
18.011165014901923
20
-15.755797161094327
42
-0.53451113595079713
10
19.64215132859978
20
-15.431373812272863
10
21.375102223424083
20
-17.164324707097187
10
21.958533435954557
20
-15.755797161094328
42
-0.53451113595079713
10
23.589519749652418
20
-15.431373812272867
10
25.32247064447672
20
-17.16432470709718
10
25.905901857007191
20
-15.755797161094328
42
-0.53451113595079003
10
27.536888170705023
20
-15.431373812272874
10
29.269839065529339
20
-17.164324707097187
10
29.853270278059814
20
-15.755797161094334
42
-0.53451113595079602
10
31.484256591757674
20
-15.431373812272868
10
33.217207486581977
20
-17.164324707097183
10
33.800638699112454
20
-15.755797161094332
42
-0.53451113595079347
10
35.431625012810279
20
-15.431373812272875
10
37.1645759076346
20
-17.16432470709719
10
37.748007120165084
20
-15.755797161094332
42
-0.53451113595079169
10
39.378993433862917
20
-15.431373812272877
10
41.11194432868723
20
-17.16432470709719
10
41.6953755412177
20
-15.755797161094332
42
-0.53451113595079702
10
43.326361854915575
20
-15.43137381227287
10
45.059312749739874
20
-17.16432470709719
10
45.642743962270337
20
-15.755797161094332
42
-0.53451113595079702
10
47.273730275968205
20
-15.43137381227287
10
49.006681170792504
20
-17.164324707097187
10
49.590112383322982
20
-15.755797161094335
42
-0.53451113595079458
10
51.221098697020807
20
-15.431373812272879
10
52.954049591845127
20
-17.164324707097194
10
53.537480804375619
20
-15.755797161094335
42
-0.53451113595079458
10
55.168467118073451
20
-15.431373812272879
10
56.901418012897764
20
-17.164324707097194
10
57.484849225428228
20
-15.755797161094335
42
-0.53451113595079702
10
59.115835539126103
20
-15.431373812272875
10
60.848786433950401
20
-17.16432470709719
10
61.432217646480879
20
-15.755797161094335
42
-0.53451113595078825
10
63.063203960178704
20
-15.431373812272884
10
64.796154855003024
20
-17.16432470709719
10
65.379586067533509
20
-15.755797161094339
42
-0.53451113595079303
10
67.010572381231341
20
-15.431373812272875
10
69.370198043575499
20
-17.790999474617045
42
-0.41421356237309004
10
69.370198043575499
20
-19.205213036990138
10
67.010572263300475
20
-21.564838817265152
42
-0.53451115263620552
10
65.379585929737289
20
-21.240415420484474
10
64.796154797644789
20
-19.831887861868211
10
63.063203842247844
20
-21.564838817265141
42
-0.53451115263620341
10
61.432217508684658
20
-21.240415420484492
10
60.848786376592159
20
-19.831887861868218
10
59.115835421195229
20
-21.564838817265141
42
-0.53451115263621374
10
57.484849087632043
20
-21.240415420484471
10
56.901417955539522
20
-19.831887861868218
10
55.168467000142591
20
-21.564838817265141
42
-0.53451115263621374
10
53.537480666579413
20
-21.240415420484471
10
52.954049534486884
20
-19.831887861868214
10
51.221098579089954
20
-21.564838817265141
42
-0.53451115263621019
10
49.590112245526761
20
-21.240415420484471
10
49.006681113434269
20
-19.831887861868211
10
47.273730158037317
20
-21.564838817265141
42
-0.53451115263621019
10
45.642743824474124
20
-21.240415420484471
10
45.059312692381624
20
-19.831887861868211
10
43.326361736984687
20
-21.564838817265137
42
-0.53451115263620808
10
41.695375403421515
20
-21.240415420484467
10
41.111944271329008
20
-19.831887861868196
10
39.378993315932064
20
-21.564838817265137
42
-0.53451115263620963
10
37.748006982368871
20
-21.240415420484467
10
37.164575850276371
20
-19.831887861868196
10
35.431624894879441
20
-21.564838817265137
42
-0.53451115263620963
10
33.800638561316255
20
-21.240415420484467
10
33.217207429223734
20
-19.831887861868211
10
31.484256473826804
20
-21.564838817265137
42
-0.53451115263620963
10
29.853270140263618
20
-21.240415420484467
10
29.269839008171097
20
-19.831887861868207
10
27.536888052774167
20
-21.564838817265137
42
-0.53451115263620963
10
25.905901719210981
20
-21.240415420484467
10
25.322470587118477
20
-19.831887861868211
10
23.589519631721526
20
-21.564838817265127
42
-0.53451115263621007
10
21.958533298158343
20
-21.24041542048446
10
21.37510216606584
20
-19.831887861868207
10
19.64215121066891
20
-21.564838817265134
42
-0.53451115263621007
10
18.01116487710572
20
-21.24041542048446
10
17.427733745013221
20
-19.831887861868189
10
15.694782789616273
20
-21.564838817265134
42
-0.53451115263621007
10
14.063796456053083
20
-21.24041542048446
10
13.480365323960584
20
-19.831887861868193
10
11.747414368563653
20
-21.564838817265127
42
-0.53451115263620941
10
10.116428035000469
20
-21.24041542048446
10
9.5329969029079464
20
-19.831887861868193
10
7.8000459475110171
20
-21.564838817265134
42
-0.53451115263620963
10
6.1690596139478293
20
-21.24041542048446
10
5.5856284818553092
20
-19.831887861868204
10
3.852677526458379
20
-21.564838817265127
42
-0.53451115263620941
10
2.2216911928951935
20
-21.240415420484457
10
1.6382600608026898
20
-19.831887861868204
10
-0.094690894594257405
20
-21.564838817265127
42
-0.53451115263620963
10
-1.7256772281574453
20
-21.240415420484457
10
-2.3091083602499474
20
-19.831887861868196
10
-4.0420593156468945
20
-21.564838817265127
42
-0.53451115263620952
10
-5.6730456492100823
20
-21.240415420484457
10
-6.2564767813025846
20
-19.8318878618682
10
-7.989427736699513
20
-21.564838817265127
42
-0.53451115263620952
10
-9.6204140702627008
20
-21.240415420484457
10
-10.597802915435242
20
-18.880789668303294
42
-0.19891235388850556
0
LWPOLYLINE
5
106
100
AcDbEntity
8
0
100
AcDbPolyline
90
122
70
1
43
0.0
10
152.2933212127399
20
-15.755797161094341
10
153.27071017584331
20
-18.115422851532358
42
-0.19891235388851977
10
153.27071019570866
20
-18.880789668303319
10
152.29332135053608
20
-21.24041542048446
42
-0.53451115263620852
10
150.66233501697292
20
-21.564838817265148
10
148.929384061576
20
-19.831887861868218
10
148.34595292948347
20
-21.240415420484471
42
-0.53451115263621962
10
146.71496659592032
20
-21.564838817265148
10
144.98201564052334
20
-19.831887861868214
10
144.39858450843084
20
-21.240415420484471
42
-0.53451115263621962
10
142.76759817486766
20
-21.564838817265148
10
141.03464721947071
20
-19.831887861868221
10
140.45121608737819
20
-21.240415420484474
42
-0.53451115263621596
10
138.82022975381503
20
-21.564838817265148
10
137.08727879841808
20
-19.831887861868218
10
136.50384766632556
20
-21.240415420484474
42
-0.53451115263621596
10
134.8728613327624
20
-21.564838817265148
10
133.13991037736545
20
-19.831887861868207
10
132.55647924527293
20
-21.240415420484474
42
-0.53451115263621596
10
130.92549291170974
20
-21.564838817265148
10
129.19254195631282
20
-19.831887861868207
10
128.60911082422029
20
-21.24041542048446
42
-0.53451115263620852
10
126.97812449065714
20
-21.564838817265148
10
125.24517353526019
20
-19.831887861868204
10
124.66174240316766
20
-21.24041542048446
42
-0.53451115263620852
10
123.03075606960449
20
-21.564838817265148
10
121.29780511420756
20
-19.831887861868218
10
120.71437398211506
20
-21.240415420484471
42
-0.53451115263621962
10
119.08338764855188
20
-21.564838817265148
10
117.35043669315493
20
-19.831887861868221
10
116.7670055610624
20
-21.240415420484474
42
-0.53451115263621596
10
115.13601922749925
20
-21.564838817265148
10
113.4030682721023
20
-19.831887861868218
10
112.81963714000977
20
-21.240415420484474
42
-0.53451115263621596
10
111.1886508064466
20
-21.564838817265148
10
109.45569985104967
20
-19.831887861868218
10
108.87226871895713
20
-21.240415420484474
42
-0.53451115263621596
10
107.24128238539396
20
-21.564838817265148
10
105.50833142999704
20
-19.831887861868207
10
104.92490029790451
20
-21.24041542048446
42
-0.53451115263620852
10
103.29391396434134
20
-21.564838817265148
10
101.5609630089444
20
-19.831887861868204
10
100.97753187685187
20
-21.24041542048446
42
-0.53451115263620852
10
99.346545543288713
20
-21.564838817265148
10
97.613594587891782
20
-19.831887861868218
10
97.030163455799268
20
-21.240415420484471
42
-0.53451115263621962
10
95.399177122236097
20
-21.564838817265148
10
93.666226166839138
20
-19.831887861868214
10
93.082795034746638
20
-21.240415420484471
42
-0.53451115263621962
10
91.451808701183452
20
-21.564838817265148
10
89.718857745786522
20
-19.831887861868218
10
89.13542661369398
20
-21.240415420484474
42
-0.53451115263621596
10
87.504440280130808
20
-21.564838817265148
10
85.771489324733892
20
-19.831887861868218
10
85.188058192641336
20
-21.240415420484474
42
-0.53451115263621596
10
83.557071859078178
20
-21.564838817265148
10
81.824120903681248
20
-19.831887861868218
10
81.240689771588734
20
-21.240415420484485
42
-0.53451115263621174
10
79.609703438025548
20
-21.564838817265141
10
77.876752482628604
20
-19.831887861868214
10
77.293321350536118
20
-21.240415420484474
42
-0.53451115263621019
10
75.662335016972918
20
-21.564838817265148
10
73.302709236697893
20
-19.205213036990134
42
-0.41421356237309137
10
73.302709236697893
20
-17.790999474617042
10
75.662334899042065
20
-15.431373812272874
42
-0.53451113595079369
10
77.293321212739897
20
-15.755797161094341
10
77.876752425270382
20
-17.164324707097194
10
79.609703320094695
20
-15.431373812272884
42
-0.5345111359507998
10
81.240689633792528
20
-15.755797161094341
10
81.824120846323012
20
-17.16432470709719
10
83.557071741147297
20
-15.431373812272875
42
-0.53451113595080058
10
85.188058054845172
20
-15.755797161094339
10
85.771489267375642
20
-17.164324707097197
10
87.504440162199955
20
-15.431373812272886
42
-0.53451113595079003
10
89.135426475897788
20
-15.755797161094341
10
89.718857688428272
20
-17.164324707097197
10
91.4518085832526
20
-15.431373812272886
42
-0.53451113595079003
10
93.082794896950418
20
-15.755797161094341
10
93.666226109480903
20
-17.16432470709719
10
95.399177004305216
20
-15.431373812272879
42
-0.53451113595079236
10
97.030163318003062
20
-15.755797161094339
10
97.613594530533533
20
-17.164324707097197
10
99.346545425357846
20
-15.431373812272879
42
-0.53451113595079236
10
100.97753173905571
20
-15.755797161094339
10
101.56096295158618
20
-17.164324707097197
10
103.29391384641049
20
-15.431373812272881
42
-0.53451113595079813
10
104.92490016010832
20
-15.755797161094341
10
105.50833137263881
20
-17.164324707097197
10
107.24128226746313
20
-15.431373812272881
42
-0.53451113595079813
10
108.87226858116095
20
-15.755797161094341
10
109.45569979369142
20
-17.16432470709719
10
111.18865068851574
20
-15.431373812272875
42
-0.53451113595080058
10
112.8196370022136
20
-15.755797161094339
10
113.40306821474407
20
-17.164324707097197
10
115.13601910956838
20
-15.431373812272886
42
-0.53451113595079003
10
116.76700542326621
20
-15.755797161094341
10
117.35043663579668
20
-17.16432470709719
10
119.083387530621
20
-15.431373812272879
42
-0.53451113595079236
10
120.71437384431886
20
-15.755797161094339
10
121.29780505684933
20
-17.164324707097197
10
123.03075595167364
20
-15.431373812272879
42
-0.53451113595079236
10
124.66174226537149
20
-15.755797161094339
10
125.24517347790196
20
-17.164324707097197
10
126.97812437272628
20
-15.431373812272879
42
-0.53451113595079236
10
128.60911068642412
20
-15.755797161094339
10
129.1925418989546
20
-17.164324707097197
10
130.92549279377891
20
-15.431373812272881
42
-0.53451113595079813
10
132.55647910747675
20
-15.755797161094341
10
133.13991032000723
20
-17.164324707097197
10
134.87286121483154
20
-15.431373812272881
42
-0.53451113595079813
10
136.50384752852938
20
-15.755797161094341
10
137.08727874105986
20
-17.16432470709719
10
138.82022963588417
20
-15.431373812272886
42
-0.53451113595079003
10
140.45121594958201
20
-15.755797161094341
10
141.03464716211246
20
-17.16432470709719
10
142.76759805693678
20
-15.431373812272879
42
-0.53451113595079236
10
144.39858437063464
20
-15.755797161094339
10
144.98201558316512
20
-17.164324707097197
10
146.71496647798944
20
-15.431373812272879
42
-0.53451113595079236
10
148.34595279168727
20
-15.755797161094339
10
148.92938400421775
20
-17.164324707097197
10
150.66233489904204
20
-15.431373812272879
42
-0.53451113595079303
0
LWPOLYLINE
5
107
100
AcDbEntity
8
0
100
AcDbPolyline
90
24
70
1
43
0.0
10
-32.031853759315453
20
-6.6660742064395482
10
-26.439984546230097
20
-24.916056206439542
42
0.32957988453969583
10
-25.483859994458847
20
-25.62309572872924
10
0.7970215202636588
20
-25.623095728729233
42
0.28108463119338833
10
1.6864333320447717
20
-25.080202531417886
42
-0.077821197938980055
10
1.8687383930479029
20
-24.830202522511424
10
1.990058741824829
20
-24.708882184169067
42
-0.19891236737965615
10
3.4042723293892081
20
-24.123095807359306
10
139.26863507989682
20
-24.123101650099187
42
-0.19891236737966908
10
140.68284861707863
20
-24.708888148543235
10
140.80416895542098
20
-24.830208497320161
42
-0.077820340106259045
10
140.98647243587402
20
-25.080205488413689
42
0.28108373435749551
10
141.8758827279222
20
-25.623095728729247
10
168.38368245085809
20
-25.623095728729254
42
0.32958276662241542
10
169.33981004900798
20
-24.916046263898792
10
174.93147166831454
20
-6.6660642638987984
42
0.50423128985090404
10
173.97534407016468
20
-5.3731137287292894
10
124.82376918036054
20
-5.3731137287292512
42
0.20603212041025273
10
119.01429416104943
20
-7.8731137287292512
42
-0.20603212041025343
10
113.20481914173828
20
-10.373113728729255
10
31.986386124068531
20
-10.37311372872923
42
-0.20603212041025307
10
26.176911104757412
20
-7.8731137287292343
42
0.20603212041025348
10
20.367436085446279
20
-5.3731137287292334
10
-31.075729207544221
20
-5.3731137287292317
42
0.50423455051924315
0
CIRCLE
5
108
100
AcDbEntity
8
0
100
AcDbCircle
10
-21.900619359863288
20
-10.62312572872923
30
0
40
1.1499999999999977
210
0
220
0
230
1
0
CIRCLE
5
109
100
AcDbEntity
8
0
100
AcDbCircle
10
-21.900619359863288
20
-20.123102728729233
30
0
40
1.1499999999999977
210
0
220
0
230
1
0
LWPOLYLINE
5
110
100
AcDbEntity
8
0
100
AcDbPolyline
90
122
70
1
43
0.0
10
-0.094690776663369086
20
-15.431373812272859
42
0.53451113595079636
10
-1.7256770903612306
20
-15.755797161094323
10
-2.3091083028917048
20
-17.16432470709718
10
-4.0420591977160063
20
-15.431373812272859
42
0.53451113595079636
10
-5.6730455114138678
20
-15.755797161094323
10
-6.256476723944342
20
-17.16432470709718
10
-7.9894276187686426
20
-15.431373812272858
42
0.53451113595079658
10
-9.6204139324665068
20
-15.755797161094321
10
-10.597802895569881
20
-18.115422851532344
42
0.19891235388850551
10
-10.597802915435242
20
-18.880789668303294
10
-9.6204140702627008
20
-21.240415420484457
42
0.53451115263620996
10
-7.989427736699513
20
-21.564838817265127
10
-6.2564767813025846
20
-19.8318878618682
10
-5.6730456492100823
20
-21.240415420484457
42
0.53451115263620974
10
-4.0420593156468945
20
-21.564838817265127
10
-2.3091083602499474
20
-19.831887861868196
10
-1.7256772281574453
20
-21.240415420484457
42
0.53451115263620974
10
-0.094690894594257335
20
-21.564838817265127
10
1.6382600608026898
20
-19.831887861868204
10
2.2216911928951935
20
-21.240415420484457
42
0.53451115263620941
10
3.852677526458379
20
-21.564838817265127
10
5.5856284818553092
20
-19.831887861868204
10
6.1690596139478293
20
-21.24041542048446
42
0.53451115263620974
10
7.8000459475110171
20
-21.564838817265134
10
9.5329969029079464
20
-19.831887861868193
10
10.116428035000469
20
-21.24041542048446
42
0.53451115263621085
10
11.747414368563655
20
-21.564838817265127
10
13.480365323960584
20
-19.831887861868193
10
14.063796456053083
20
-21.24041542048446
42
0.53451115263621007
10
15.694782789616273
20
-21.564838817265134
10
17.427733745013221
20
-19.831887861868189
10
18.01116487710572
20
-21.24041542048446
42
0.53451115263621007
10
19.64215121066891
20
-21.564838817265134
10
21.37510216606584
20
-19.831887861868207
10
21.958533298158343
20
-21.24041542048446
42
0.53451115263621007
10
23.589519631721526
20
-21.564838817265127
10
25.322470587118477
20
-19.831887861868211
10
25.905901719210981
20
-21.240415420484467
42
0.53451115263620963
10
27.536888052774167
20
-21.564838817265137
10
29.269839008171097
20
-19.831887861868207
10
29.853270140263618
20
-21.240415420484467
42
0.53451115263620963
10
31.484256473826804
20
-21.564838817265137
10
33.217207429223734
20
-19.831887861868211
10
33.800638561316255
20
-21.240415420484467
42
0.53451115263620963
10
35.431624894879441
20
-21.564838817265137
10
37.164575850276371
20
-19.831887861868196
10
37.748006982368871
20
-21.240415420484467
42
0.53451115263620963
10
39.378993315932064
20
-21.564838817265137
10
41.111944271329008
20
-19.831887861868196
10
41.695375403421515
20
-21.240415420484467
42
0.53451115263620697
10
43.326361736984687
20
-21.564838817265137
10
45.059312692381624
20
-19.831887861868211
10
45.642743824474124
20
-21.240415420484471
42
0.53451115263621019
10
47.273730158037317
20
-21.564838817265141
10
49.006681113434269
20
-19.831887861868211
10
49.590112245526761
20
-21.240415420484471
42
0.53451115263621019
10
51.221098579089954
20
-21.564838817265141
10
52.954049534486884
20
-19.831887861868214
10
53.537480666579413
20
-21.240415420484471
42
0.53451115263621374
10
55.168467000142591
20
-21.564838817265141
10
56.901417955539522
20
-19.831887861868218
10
57.484849087632043
20
-21.240415420484471
42
0.53451115263621374
10
59.115835421195229
20
-21.564838817265141
10
60.848786376592159
20
-19.831887861868218
10
61.432217508684658
20
-21.240415420484492
42
0.53451115263620441
10
63.063203842247844
20
-21.564838817265141
10
64.796154797644789
20
-19.831887861868211
10
65.379585929737289
20
-21.240415420484474
42
0.53451115263620241
10
67.010572263300475
20
-21.564838817265152
10
69.370198043575499
20
-19.205213036990138
42
0.41421356237309181
10
69.370198043575499
20
-17.790999474617042
10
67.010572381231341
20
-15.431373812272875
42
0.53451113595079303
10
65.379586067533509
20
-15.755797161094339
10
64.796154855003024
20
-17.16432470709719
10
63.063203960178704
20
-15.431373812272884
42
0.53451113595078747
10
61.432217646480879
20
-15.755797161094335
10
60.848786433950401
20
-17.16432470709719
10
59.115835539126103
20
-15.431373812272875
42
0.53451113595079813
10
57.484849225428228
20
-15.755797161094339
10
56.901418012897764
20
-17.164324707097194
10
55.168467118073451
20
-15.431373812272879
42
0.53451113595079458
10
53.537480804375619
20
-15.755797161094335
10
52.954049591845127
20
-17.164324707097194
10
51.221098697020807
20
-15.431373812272879
42
0.53451113595079458
10
49.590112383322982
20
-15.755797161094335
10
49.006681170792504
20
-17.164324707097187
10
47.273730275968205
20
-15.43137381227287
42
0.53451113595079813
10
45.642743962270337
20
-15.755797161094334
10
45.059312749739874
20
-17.16432470709719
10
43.326361854915575
20
-15.43137381227287
42
0.53451113595079813
10
41.6953755412177
20
-15.755797161094334
10
41.11194432868723
20
-17.16432470709719
10
39.378993433862917
20
-15.431373812272877
42
0.53451113595079169
10
37.748007120165084
20
-15.755797161094332
10
37.1645759076346
20
-17.16432470709719
10
35.431625012810279
20
-15.431373812272875
42
0.53451113595079347
10
33.800638699112454
20
-15.755797161094332
10
33.217207486581977
20
-17.164324707097183
10
31.484256591757674
20
-15.431373812272868
42
0.53451113595079602
10
29.853270278059814
20
-15.755797161094332
10
29.269839065529339
20
-17.164324707097187
10
27.536888170705023
20
-15.431373812272874
42
0.53451113595079058
10
25.905901857007191
20
-15.755797161094328
10
25.32247064447672
20
-17.16432470709718
10
23.589519749652418
20
-15.431373812272867
42
0.53451113595079713
10
21.958533435954557
20
-15.755797161094328
10
21.375102223424083
20
-17.164324707097187
10
19.64215132859978
20
-15.431373812272863
42
0.53451113595079691
10
18.011165014901923
20
-15.755797161094327
10
17.427733802371446
20
-17.164324707097183
10
15.694782907547143
20
-15.431373812272863
42
0.53451113595079691
10
14.063796593849284
20
-15.755797161094327
10
13.480365381318808
20
-17.164324707097183
10
11.747414486494492
20
-15.43137381227287
42
0.53451113595079403
10
10.116428172796663
20
-15.755797161094325
10
9.5329969602661713
20
-17.164324707097183
10
7.8000460654418537
20
-15.431373812272868
42
0.53451113595079081
10
6.169059751744026
20
-15.755797161094325
10
5.5856285392135518
20
-17.164324707097176
10
3.8526776443892348
20
-15.431373812272868
42
0.53451113595078981
10
2.2216913306914061
20
-15.755797161094325
10
1.6382601181609324
20
-17.164324707097173
0
LWPOLYLINE
5
111
100
AcDbEntity
8
0
100
AcDbPolyline
90
122
70
1
43
0.0
10
77.293321212739897
20
-15.755797161094341
42
0.53451113595079314
10
75.662334899042065
20
-15.431373812272874
10
73.302709236697893
20
-17.790999474617042
42
0.41421356237309137
10
73.302709236697893
20
-19.205213036990134
10
75.662335016972918
20
-21.564838817265148
42
0.53451115263621019
10
77.293321350536118
20
-21.240415420484474
10
77.876752482628604
20
-19.831887861868214
10
79.609703438025548
20
-21.564838817265141
42
0.53451115263621174
10
81.240689771588734
20
-21.240415420484485
10
81.824120903681248
20
-19.831887861868218
10
83.557071859078178
20
-21.564838817265148
42
0.53451115263621474
10
85.188058192641364
20
-21.240415420484482
10
85.771489324733892
20
-19.831887861868218
10
87.504440280130808
20
-21.564838817265148
42
0.53451115263621474
10
89.135426613693994
20
-21.240415420484482
10
89.718857745786522
20
-19.831887861868218
10
91.451808701183452
20
-21.564838817265148
42
0.53451115263621962
10
93.082795034746638
20
-21.240415420484471
10
93.666226166839138
20
-19.831887861868214
10
95.399177122236097
20
-21.564838817265148
42
0.53451115263621962
10
97.030163455799268
20
-21.240415420484471
10
97.613594587891782
20
-19.831887861868218
10
99.346545543288713
20
-21.564838817265148
42
0.53451115263621019
10
100.97753187685187
20
-21.240415420484457
10
101.5609630089444
20
-19.831887861868204
10
103.29391396434134
20
-21.564838817265148
42
0.53451115263621019
10
104.92490029790451
20
-21.240415420484457
10
105.50833142999704
20
-19.831887861868207
10
107.24128238539396
20
-21.564838817265148
42
0.53451115263621474
10
108.87226871895714
20
-21.240415420484482
10
109.45569985104967
20
-19.831887861868218
10
111.1886508064466
20
-21.564838817265148
42
0.53451115263621474
10
112.81963714000979
20
-21.240415420484482
10
113.4030682721023
20
-19.831887861868218
10
115.13601922749925
20
-21.564838817265148
42
0.53451115263621474
10
116.76700556106242
20
-21.240415420484482
10
117.35043669315493
20
-19.831887861868221
10
119.08338764855188
20
-21.564838817265148
42
0.53451115263621962
10
120.71437398211506
20
-21.240415420484471
10
121.29780511420756
20
-19.831887861868218
10
123.03075606960449
20
-21.564838817265148
42
0.53451115263621019
10
124.66174240316766
20
-21.240415420484457
10
125.24517353526019
20
-19.831887861868204
10
126.97812449065714
20
-21.564838817265148
42
0.53451115263621019
10
128.60911082422029
20
-21.240415420484457
10
129.19254195631282
20
-19.831887861868207
10
130.92549291170974
20
-21.564838817265148
42
0.53451115263621474
10
132.55647924527293
20
-21.240415420484482
10
133.13991037736545
20
-19.831887861868207
10
134.8728613327624
20
-21.564838817265148
42
0.53451115263621474
10
136.50384766632558
20
-21.240415420484482
10
137.08727879841808
20
-19.831887861868218
10
138.82022975381503
20
-21.564838817265148
42
0.53451115263621474
10
140.45121608737821
20
-21.240415420484482
10
141.03464721947071
20
-19.831887861868221
10
142.76759817486766
20
-21.564838817265148
42
0.53451115263621962
10
144.39858450843084
20
-21.240415420484471
10
144.98201564052334
20
-19.831887861868214
10
146.71496659592032
20
-21.564838817265148
42
0.53451115263621962
10
148.34595292948347
20
-21.240415420484471
10
148.929384061576
20
-19.831887861868218
10
150.66233501697292
20
-21.564838817265148
42
0.53451115263621019
10
152.29332135053608
20
-21.240415420484457
10
153.27071019570866
20
-18.880789668303319
42
0.19891235388851961
10
153.27071017584331
20
-18.115422851532358
10
152.2933212127399
20
-15.755797161094341
42
0.53451113595079403
10
150.66233489904204
20
-15.431373812272879
10
148.92938400421775
20
-17.164324707097197
10
148.34595279168727
20
-15.755797161094339
42
0.53451113595078636
10
146.71496647798944
20
-15.431373812272867
10
144.98201558316512
20
-17.164324707097197
10
144.39858437063464
20
-15.755797161094339
42
0.53451113595078636
10
142.76759805693678
20
-15.431373812272867
10
141.03464716211246
20
-17.16432470709719
10
140.45121594958201
20
-15.755797161094341
42
0.53451113595079058
10
138.82022963588417
20
-15.431373812272886
10
137.08727874105986
20
-17.16432470709719
10
136.50384752852938
20
-15.755797161094341
42
0.53451113595079758
10
134.87286121483154
20
-15.431373812272881
10
133.13991032000723
20
-17.164324707097197
10
132.55647910747675
20
-15.755797161094341
42
0.53451113595079758
10
130.92549279377891
20
-15.431373812272881
10
129.1925418989546
20
-17.164324707097197
10
128.60911068642412
20
-15.755797161094339
42
0.53451113595078636
10
126.97812437272628
20
-15.431373812272867
10
125.24517347790196
20
-17.164324707097197
10
124.66174226537149
20
-15.755797161094339
42
0.53451113595078636
10
123.03075595167364
20
-15.431373812272867
10
121.29780505684933
20
-17.164324707097197
10
120.71437384431886
20
-15.755797161094339
42
0.53451113595078636
10
119.083387530621
20
-15.431373812272867
10
117.35043663579668
20
-17.16432470709719
10
116.76700542326621
20
-15.755797161094341
42
0.53451113595079058
10
115.13601910956838
20
-15.431373812272886
10
113.40306821474407
20
-17.164324707097197
10
112.8196370022136
20
-15.755797161094339
42
0.53451113595080058
10
111.18865068851574
20
-15.431373812272875
10
109.45569979369142
20
-17.16432470709719
10
108.87226858116095
20
-15.755797161094341
42
0.53451113595079758
10
107.24128226746313
20
-15.431373812272881
10
105.50833137263881
20
-17.164324707097197
10
104.92490016010832
20
-15.755797161094341
42
0.53451113595079758
10
103.29391384641049
20
-15.431373812272881
10
101.56096295158618
20
-17.164324707097197
10
100.97753173905571
20
-15.755797161094339
42
0.53451113595078636
10
99.346545425357846
20
-15.431373812272867
10
97.613594530533533
20
-17.164324707097197
10
97.030163318003062
20
-15.755797161094339
42
0.53451113595078636
10
95.399177004305216
20
-15.431373812272867
10
93.666226109480903
20
-17.16432470709719
10
93.082794896950418
20
-15.755797161094341
42
0.53451113595079058
10
91.4518085832526
20
-15.431373812272886
10
89.718857688428272
20
-17.164324707097197
10
89.135426475897788
20
-15.755797161094341
42
0.53451113595079058
10
87.504440162199955
20
-15.431373812272886
10
85.771489267375642
20
-17.164324707097197
10
85.188058054845172
20
-15.755797161094339
42
0.53451113595080058
10
83.557071741147297
20
-15.431373812272875
10
81.824120846323012
20
-17.16432470709719
10
81.240689633792528
20
-15.755797161094341
42
0.53451113595079836
10
79.609703320094695
20
-15.431373812272879
10
77.876752425270382
20
-17.164324707097194
0
CIRCLE
5
112
100
AcDbEntity
8
0
100
AcDbCircle
10
164.80438101513673
20
-10.623125728729255
30
0
40
1.1499999999999844
210
0
220
0
230
1
0
CIRCLE
5
113
100
AcDbEntity
8
0
100
AcDbCircle
10
164.80438101513673
20
-20.123102728729254
30
0
40
1.1499999999999844
210
0
220
0
230
1
0
ENDSEC
0
SECTION
2
OBJECTS
0
DICTIONARY
5
C
100
AcDbDictionary
3
ACAD_GROUP
350
D
3
ACAD_MLINESTYLE
350
17
0
DICTIONARY
5
D
100
AcDbDictionary
0
DICTIONARY
5
1A
330
C
100
AcDbDictionary
0
DICTIONARY
5
17
100
AcDbDictionary
0
ENDSEC
0
EOF
